<svg version="1.1" viewBox="0 0 2048 518" width="616" height="156" xmlns="http://www.w3.org/2000/svg" style="fill: red;">
<path transform="translate(119,39)" d="m0 0 4 1-1 18-1 15v11l2 29v9l5-3 11-12 12-11 18-14 18-11 16-8 17-7 24-6 14-2 12-1h16l18 2 19 5 12 5 14 8 10 8 7 7 9 12 6 14 3 12 1 8v13l-3 16-6 15-9 15-13 15-13 11-14 9-21 10-22 6-16 2-21 1-23-2-18-4-15-5-16-8-14-9-12-11-10-11-10-15-1-4h-2l-1 4-12 26-9 28-5 25-2 23v11l2 19 4 18 5 13 7 13 9 11 9 8 14 8 12 5 18 4 10 1h15l21-2 23-5 20-8 17-9 12-9 14-12 9-10 11-14 10-16 14-26 10-16 9-11 11-12 13-10 16-8 11-3h24l13 5 9 8 2 4-1 6-3 2h-5l-6-9-5-3-4-1h-7l-11 4-11 7-15 14-10 11-12 17-8 13-9 20-4 17v8l3 6 2 1h7l10-5 10-9 10-12 16-25 13-23 9-15 8-7 7-2 14 1 7 2-15 20-9 16-8 19-5 17-2 16 3 7 7 1 7-4 11-11 11-18 12-23 11-21 8-16 9-16 8-10 8-4h16l8 1-1 4-5 5-6 7-10 15-16 28v2l23-23 8-7 10-9 13-10 10-7 11-4 9 1 6 7v7l-7 18-12 22-1 4 9-9 7-8 14-12 17-11 18-10 10-5 9-3 13-1-2 5-17 33-8 16-9 19-10 25-3 15 1 7 4 3 7-1 9-5 9-9 10-14 11-19 9-19 6-20 3-17v-12l-2-5-2-4 17-3 13-1 3 1 2 3v21l-4 22-2 6h2l2-5 13-18 7-9 9-10 7-6 8-5 6-2h13l9 4 8 9 3 11v16l-4 18-8 20-7 13-13 19-11 12-11 8-9 5-13 5-13 2-15-1-13-4-3-1-6 16-30 75-8 15-7 6-6 2h-12l-13-2v-3l9-14 13-23 18-34 19-39 9-20 7-15 3-9-9 16-9 13-9 10-10 8-10 4-5 1h-10l-9-4-7-8-2-8v-14l3-15 9-21 14-26 1-5-1-2h-6l-12 7-15 13-8 9-13 17-12 17-9 15-7 14-3 9-4 1-8-5-3-6v-15l4-14 12-25 13-27 2-6v-5l-6 1-11 7-11 10-5 5h-2l-2 4-11 12-12 16-15 25-10 18-5 4-17 1-7 1 1-5v-2l-8 5-4 1h-15l-8-4-6-7-1-4v-23l1-5-5 5-7 9-12 14-9 8-11 6-4 1h-10l-8-4-5-6-4-9-2-12v-7l-16 22-16 16-9 8-15 10-19 10-23 8-20 4-20 2h-23l-21-3-15-4-18-8-11-7-10-8-8-8-10-14-9-17-6-20-3-18-1-14v-11l2-25 5-24 9-27 9-20 10-19 7-11 5-9-1-9-3-25v-34l2-16 3-11zm153 25-20 3-22 7-24 12-22 16-10 9-8 7-7 7-8 10-10 13-6 9 8 16 10 14 10 11 14 11 16 9 16 6 14 3 20 2h10l21-2 23-6 19-9 14-10 9-8 9-11 8-13 5-12 3-11 1-7v-14l-4-16-6-11-11-12-7-6-16-9-18-6-17-2zm512 168-12 6-12 12-14 19-21 35-13 24-11 19 3 3 5 2 10-1 14-7 10-8 12-11 9-11 10-13 12-20 6-14 4-15v-10l-3-7-5-3z" fill="#181717" style="fill: red;"/>
<path transform="translate(902,218)" d="m0 0h25l12 5 8 6 3 5v6l-3 3h-5l-5-7v-2l-4-2-6-2h-7l-12 4-10 7-10 9-12 12-10 13-11 17-10 21-4 12-1 6v11l3 5 2 1h7l10-5 10-9 8-10 10-15 13-21 11-20 9-13 7-4 11-1 14 2-1 4-10 12-8 13-8 16-6 16-4 15-1 15 1 5 9 1 9-6 9-10 11-17 11-21 14-34 8-21 1-6-4-8v-3h31l3 3v8l-11 25-17 38-10 26-3 10v10l2 6 4 1h7l8-3 10-8 10-12 11-19 13-26 11-18 9-12 9-10 7-7 14-9 11-5 14-3h17l13 4 12 7 5 6 1 2v8l-3 3h-5l-6-9-4-5v-2l-10-3-10 2-14 7-11 9-13 13-10 13-10 15-10 19-5 14-2 9 1 10 3 5 3 2h9l10-5 10-9 8-8 12-17 13-22 10-23 4-4 15-4 4-1 1 1 2 19v38l-4 27-4 14 9-6 13-13 10-15 10-18 24-48 10-16 7-8 6-3h16l10 1-6 7-8 10-10 15-13 23-4 8 25-25 13-10 15-10 18-10 16-6 13-1-2 5-15 29-8 15-15 33-6 16-3 15 1 7 2 2 5 1 10-4 10-9 10-13 11-19 8-16 4-7 6 1-1 8-7 16-9 16-10 15-9 10-9 8-8 4-9 2h-9l-9-3-7-6-3-5-2-10v-8l3-15 8-18 8-15 9-16v-7l-2-1-14 7-15 13-12 13-11 14-9 13-13 22-9 16-4 4-18 2-8 1 1-4 4-7-7 6-14 8-4 8-11 23-10 17-8 11-7 9-12 14-15 14-14 10-16 9-16 5-6 1h-23l-9-2-10-6-6-9-2-7v-14l3-10 7-10 7-8 15-11 18-10 17-8 19-7 55-19h2l4-17 3-14 3-24 1-20h-2l-2 5-9 15-12 17-9 11-10 10-12 8-11 3h-10l-8-3-10-9-5-11-1-4v-8l-1 1-7 10-9 10-7 7-9 5-7 2h-15l-8-3-7-8-4-11-1-7-9 12-9 10-9 6-5 2h-16l-8-4-4-5-3-8v-16l1-9-5 5-11 14-15 15-10 6-6 2h-10l-8-4-6-7-4-10-1-8v-11l2-14 6-18 11-21 10-14 9-10 9-9 13-9 12-6zm212 163-44 15-24 10-16 8-15 9-12 11-7 10-5 10-1 3v12l7 8 6 2h10l12-3 19-9 11-7 14-12 8-8 9-11 10-13 13-19 8-14v-2z" fill="#181717" style="fill: red;"/>
<path transform="translate(1546,180)" d="m0 0h7l6 4 4 6 1 4v12l-3 8-6 9-9 9v1h23l16-1h12v10l-6 17-12 25-10 21-6 15-3 10-1 11 2 6 2 1h6l6-5h2l2-4 7-8 11-17 11-21 6-12 9-15 9-12 11-12 10-9 14-9 14-5 4-1h24l11 4 9 6 4 6v6l-3 3h-5l-7-9-5-3-3-1h-8l-11 4-10 7-14 12-12 14-12 17-10 17-8 20-2 9v13l5 5h7l8-4 10-8 9-11 7-10 11-17 12-21 10-17 4-5 7-4 11-1 14 2v3l-9 10-11 17-9 19-7 22-2 11v10l3 5 9-1 8-6 10-12 15-25 11-23 7-16 9-17 7-9 8-8 8-5 13-4h14l13 3 17 7 9 1 9-5 5-3 5 2 3 5v7l-7 6-16 9-10 8-13 17-14 20-14 19-12 13-6 4-1 2 16 2 24 4h12l10-4 9-6 7-7 10-15 16-32 7-13 11-16 14-15 10-8 16-8 8-2h17l8 5 4 5 2 6-1 13-8 16-11 12-9 8-14 8-24 8-11 2-4 18v18l4 10 5 4 3 1h12l11-4 11-7 9-8 10-13 12-20 9-17 6 1v6l-10 21-13 21-9 11-10 9-16 8-7 2-8 1h-10l-10-2-12-6-7-7-5-12-1-10v-4l-10 16-12 13-9 8-13 5h-20l-34-5h-13l-14 6-5 1h-9l-4-4 1-8 4-5 21-9 14-7 9-8 9-11 12-16 12-17 14-19 6-8-28-4h-12l-13 3-8 6-7 8-9 17-9 20-11 20-12 18-11 12-9 6-6 2h-14l-8-3-6-7-2-7v-18l2-8-5 5-9 11-11 12-10 9-10 5-4 1h-9l-7-3-7-8-4-10-1-8v-9h-2l-2 6-10 14-11 11-12 6-10 1-8-2-6-4-6-8-2-9v-10l3-14 5-12 10-20 8-14 4-9-1-7-6-4-12-3-11-1-3 10-12 30-8 18-11 21-9 12-9 10-11 9-11 5-16 3h-12l-13-3-9-6-7-9-4-9-2-12v-10l3-14 6-17 7-15 7-12 8-10 9-10 14-10 12-5 10-2h13l10 3 7 6 3 6 1 4v10l-4 10-9 10-4 3-6 1-5-2 1-5 6-9 4-9 1-10-1-5-4-1h-9l-9 4-9 7-7 7-9 13-10 19-6 16-4 18v17l3 9 4 6 6 4 5 1 13-1 10-4 10-7 9-9 9-13 10-18 9-19 8-21 10-31 7-27 4-15 5-6zm423 49-9 6-10 9-9 10-12 17-7 11-4 7v2l7-1 15-5 12-7 10-9 7-8 8-16 1-3v-10l-2-3z" fill="#181717" style="fill: red;"/>
<path transform="translate(1022,167)" d="m0 0h9l6 3 3 5v11l-6 9-8 4h-9l-6-3-4-8 1-9 4-6 5-4z" fill="#181717" style="fill: red;"/>
</svg>